<svg xmlns="http://www.w3.org/2000/svg" viewBox="0 0 522.19 329.17"><defs><style>.cls-1{fill:#5f021f;}</style></defs><g id="Layer_2" data-name="Layer 2"><g id="Camada_1" data-name="Camada 1"><polygon class="cls-1" points="201.88 30.32 190.78 59.39 213.66 59.39 201.88 30.32"/><path class="cls-1" d="M367.82,213.45V0H346.69V106.72h-14.2V0H311.37V106.72H296.83V0H275.71V106.72H261.09V213.45Zm-23.54-92.22v.15h.08l1.69,18.47-1.32.26a40.83,40.83,0,0,0-2.71-6.49,19.18,19.18,0,0,0-7.77-7.64,20.72,20.72,0,0,0-6.63-2.24,67.61,67.61,0,0,0-10.35-.62h-9.09v33.55h2.36c6.94,0,12-1.52,15.12-4.48a12.85,12.85,0,0,0,3.14-4.57,24.34,24.34,0,0,0,1.4-6.9l1.35.05-.34,34.43h-1.42a27.61,27.61,0,0,0-2.21-8.95,12.1,12.1,0,0,0-4.72-5.08,17,17,0,0,0-5.8-2.08,48.48,48.48,0,0,0-8.84-.66v22.69a48.6,48.6,0,0,0,.47,7.71,11.06,11.06,0,0,0,3.26,6.09l.05.05a10.09,10.09,0,0,0,3.06,1.79,19.22,19.22,0,0,0,4.77.88h.72v1.3H282.86l.11-1.33a21.62,21.62,0,0,0,2.28-.12,14.88,14.88,0,0,0,3.11-.76,10.23,10.23,0,0,0,3.94-2.36,10.71,10.71,0,0,0,2.36-4.84,40.77,40.77,0,0,0,.7-8.47v-41.9c0-2.42-.14-4.94-.4-7.56a9.38,9.38,0,0,0-5.06-7.46,16.9,16.9,0,0,0-6.87-1.52v0h-.11l.11-.76v-.45h.08v-.15Z"/><path class="cls-1" d="M338.93,283.41v.74a12.25,12.25,0,0,1,4.44.89,5.47,5.47,0,0,1,3.27,4.32,37.85,37.85,0,0,1,.26,4.38V318a21.42,21.42,0,0,1-.45,4.92,6.06,6.06,0,0,1-1.52,2.8,6.56,6.56,0,0,1-2.53,1.36,11.31,11.31,0,0,1-3.47.51v.75H363.2v-.75a14.73,14.73,0,0,1-3.55-.53,6.6,6.6,0,0,1-2.41-1.41,5.64,5.64,0,0,1-1.59-2.69,22.26,22.26,0,0,1-.41-5V304.88a33.93,33.93,0,0,1,5.61.41,12.09,12.09,0,0,1,3.75,1.2,7.41,7.41,0,0,1,3,2.95,14.71,14.71,0,0,1,1.43,5.19H370l.31-20h-.87a13,13,0,0,1-.91,4,7.33,7.33,0,0,1-2,2.66q-3,2.6-9.76,2.6h-1.51V284.43h5.86a46.8,46.8,0,0,1,6.69.36,13.88,13.88,0,0,1,4.27,1.29,11.89,11.89,0,0,1,5,4.44,20.73,20.73,0,0,1,1.75,3.76l.87-.16-1.13-10.71Z"/><path class="cls-1" d="M392,324.64a13.28,13.28,0,0,1-.29-3.27V299.82L380.79,301v.62a7.77,7.77,0,0,1,2.62.51,3.8,3.8,0,0,1,1.55,1.34,4.67,4.67,0,0,1,.83,2.27,39.8,39.8,0,0,1,.19,4.76v8.14a43.62,43.62,0,0,1-.16,4.43,6.58,6.58,0,0,1-.6,2.27,3.61,3.61,0,0,1-1.59,1.64,11.85,11.85,0,0,1-3.27.74v.65H397v-.65a8.36,8.36,0,0,1-3.9-1.35A3.39,3.39,0,0,1,392,324.64Z"/><path class="cls-1" d="M410.82,324.63a13.32,13.32,0,0,1-.29-3.27V282.09l-10.89,1.13,0,.71a7.56,7.56,0,0,1,2.61.5,3.42,3.42,0,0,1,1.55,1.31,4.48,4.48,0,0,1,.83,2.27,37.66,37.66,0,0,1,.2,4.75v25.87a43.71,43.71,0,0,1-.17,4.44,6.57,6.57,0,0,1-.59,2.27,3.61,3.61,0,0,1-1.59,1.64,11.48,11.48,0,0,1-3.27.73v.66h16.7v-.66a8.33,8.33,0,0,1-3.91-1.35A3.39,3.39,0,0,1,410.82,324.63Z"/><path class="cls-1" d="M51.89,327.09a7.65,7.65,0,0,1-2.09-.92,8.61,8.61,0,0,1-2.38-2.54,50.69,50.69,0,0,1-3-5.6L27.94,283.39H25.78L11.91,314.47q-1.92,4.25-3.06,6.38a19.53,19.53,0,0,1-2.37,3.47,9.82,9.82,0,0,1-3,2.44,8.93,8.93,0,0,1-3.52.85v.75H17v-.75a8.55,8.55,0,0,1-3.79-1.05,5.15,5.15,0,0,1-1.69-1.72,4.41,4.41,0,0,1-.63-2.27,14.65,14.65,0,0,1,1.71-5.67l.94-2.1,2-4.54H32.22L35.85,318l.62,1.43a9.11,9.11,0,0,1,1.06,3.63,3.93,3.93,0,0,1-2.36,3.56,13,13,0,0,1-4.7,1v.75h25l0-.76A27.83,27.83,0,0,1,51.89,327.09ZM16.15,309l7.51-17,8,17Z"/><path class="cls-1" d="M490.93,305a19.71,19.71,0,0,0-26.41,0,12.63,12.63,0,0,0-4.54,9.52,12.11,12.11,0,0,0,1.1,5,14.64,14.64,0,0,0,3.2,4.4,20.36,20.36,0,0,0,26.89,0,13.44,13.44,0,0,0,1.58-1.62A12.31,12.31,0,0,0,490.93,305Zm-3.2,14.93a14.2,14.2,0,0,1-2.4,4.63,9.76,9.76,0,0,1-3.33,2.76,8.51,8.51,0,0,1-4,1,9.87,9.87,0,0,1-8.14-4.45,15.74,15.74,0,0,1-3-9.71,14.84,14.84,0,0,1,3.19-9.59,9.19,9.19,0,0,1,7.4-3.92,9.56,9.56,0,0,1,7.61,3.72,15.36,15.36,0,0,1,2.6,4.72,16.44,16.44,0,0,1,1,5.46A17.26,17.26,0,0,1,487.73,319.88Z"/><path class="cls-1" d="M184.77,324.63a13.32,13.32,0,0,1-.29-3.27v-14a6.26,6.26,0,0,0-2.93-5.53,13.87,13.87,0,0,0-7.8-2,16.7,16.7,0,0,0-11.2,4v-.52a13.75,13.75,0,0,0-.53-3.56l-10.4,1.2v.62a7.82,7.82,0,0,1,2.62.51,3.7,3.7,0,0,1,1.55,1.33,4.53,4.53,0,0,1,.82,2.27,37.82,37.82,0,0,1,.2,4.76v8.13a43.71,43.71,0,0,1-.16,4.44,6.58,6.58,0,0,1-.6,2.27,3.61,3.61,0,0,1-1.59,1.64,11.42,11.42,0,0,1-3.26.73v.66h16.64v-.66a8.33,8.33,0,0,1-3.91-1.35,3.31,3.31,0,0,1-1.13-1.73,13.83,13.83,0,0,1-.3-3.27v-8.9a29.17,29.17,0,0,1,.37-5.52,6.54,6.54,0,0,1,1.5-3,7.1,7.1,0,0,1,2.9-2,10.52,10.52,0,0,1,4-.72,9.45,9.45,0,0,1,3.6.65,5.42,5.42,0,0,1,2.51,1.79,5.91,5.91,0,0,1,1.08,2.7,34.48,34.48,0,0,1,.28,5.28v7a43,43,0,0,1-.17,4.4,6,6,0,0,1-.6,2.27,3.61,3.61,0,0,1-1.59,1.64,11.42,11.42,0,0,1-3.26.73v.66h16.73v-.66a8.4,8.4,0,0,1-3.9-1.35A3.39,3.39,0,0,1,184.77,324.63Z"/><path class="cls-1" d="M114.54,326.87a6.06,6.06,0,0,1-2.84.61,7.13,7.13,0,0,1-2.54-.46,4.74,4.74,0,0,1-1.89-1.28c-.91-1-1.37-2.68-1.37-4.95V301.62h9.66v-1.25H105.9l0-8.61h-1.41l-.37,1.13a15.52,15.52,0,0,1-1.45,3.12,12.67,12.67,0,0,1-2,2.42,10.78,10.78,0,0,1-4.54,2.66v.53h4.06v19.93a15.13,15.13,0,0,0,.34,4,3.57,3.57,0,0,0,1.44,1.89q2,1.51,6.51,1.52a14.67,14.67,0,0,0,5.68-.95,7.69,7.69,0,0,0,3.51-2.94l-.57-.44A9,9,0,0,1,114.54,326.87Z"/><path class="cls-1" d="M295.57,287.35a22.88,22.88,0,0,1,6.23,1.23,24.26,24.26,0,0,0,6.81,1.22,14.24,14.24,0,0,0,8.73-2.71l-.6-.73a7.56,7.56,0,0,1-3.26.82,24.3,24.3,0,0,1-6.15-1.21,25.54,25.54,0,0,0-6.81-1.23,20.73,20.73,0,0,0-11.82,3.55c-3.49,2.27-5.25,5-5.25,7.94q0,6,8.62,7.62a20.4,20.4,0,0,0-9,5.32,10.89,10.89,0,0,0-3.17,7.52,11,11,0,0,0,4.45,8.86q4.46,3.6,11.63,3.61a18.56,18.56,0,0,0,13.17-4.88c3.49-3.26,5.21-6.83,5.21-10.72a6.5,6.5,0,0,0-2.13-5,8.13,8.13,0,0,0-5.68-2,11.4,11.4,0,0,0-7.52,2.63,7.62,7.62,0,0,0-3.2,6,4.17,4.17,0,0,0,1.13,3.08,4.11,4.11,0,0,0,3.07,1.14,4.31,4.31,0,0,0,4.54-3.59l-.87-.39a3.41,3.41,0,0,1-2.54,1.21,2.92,2.92,0,0,1-2.14-.9,3.1,3.1,0,0,1-.9-2.27,4.26,4.26,0,0,1,1.8-3.31,6.45,6.45,0,0,1,4.12-1.47,6.54,6.54,0,0,1,4.85,2.15A7.13,7.13,0,0,1,311,316c0,2.94-1.37,5.55-4.09,7.82a14.47,14.47,0,0,1-9.69,3.4,12.61,12.61,0,0,1-8.72-3,10.06,10.06,0,0,1-3.4-7.94,11.52,11.52,0,0,1,4.07-8.93q4.08-3.62,11.28-4.42l-.22-1.35a25.33,25.33,0,0,1-4.25.53,8.11,8.11,0,0,1-5.67-2.09,7,7,0,0,1-2.27-5.46,6.9,6.9,0,0,1,2.07-5.24A7.69,7.69,0,0,1,295.57,287.35Z"/><path class="cls-1" d="M391.17,287.2a2.67,2.67,0,0,0,1-2.09,2.6,2.6,0,0,0-1-2.06,3.93,3.93,0,0,0-4.86,0,2.59,2.59,0,0,0-1,2.06,2.66,2.66,0,0,0,1,2.09,3.67,3.67,0,0,0,2.46.81l-.05.05A3.71,3.71,0,0,0,391.17,287.2Z"/><path class="cls-1" d="M256.66,300.84a6.16,6.16,0,0,0-3.76-1,13.44,13.44,0,0,0-7.17,2,9.8,9.8,0,0,0-3.06,3.12h0a24.59,24.59,0,0,0-.65-5.13L232.23,301v.6a7.87,7.87,0,0,1,2.62.51,3.7,3.7,0,0,1,1.54,1.34,4.54,4.54,0,0,1,.83,2.27,36,36,0,0,1,.2,4.76v8.13a41.09,41.09,0,0,1-.17,4.44,6.37,6.37,0,0,1-.6,2.27,3.61,3.61,0,0,1-1.59,1.64,11.7,11.7,0,0,1-3.25.73v.66h16.65v-.66a8.4,8.4,0,0,1-3.91-1.35,3.31,3.31,0,0,1-1.13-1.73,12.9,12.9,0,0,1-.3-3.27v-8.67a18.4,18.4,0,0,1,1.44-8.06q1.45-2.91,4-2.91a4.78,4.78,0,0,1,3.3,1.28l1.14,1.14a3.16,3.16,0,0,0,2.27.92,2.81,2.81,0,0,0,1.81-.59,1.91,1.91,0,0,0,.7-1.52A2.53,2.53,0,0,0,256.66,300.84Z"/><path class="cls-1" d="M451.78,324.67a13.28,13.28,0,0,1-.3-3.27V309.28a12.64,12.64,0,0,0-.77-5,6.5,6.5,0,0,0-2.86-2.82,15.86,15.86,0,0,0-7.42-1.55,16.07,16.07,0,0,0-6.28,1.13,11.12,11.12,0,0,0-2.47,1.39,20.43,20.43,0,0,0-2.35,2.21V282.09l-10.92,1.14v.7a7.56,7.56,0,0,1,2.61.5,3.52,3.52,0,0,1,1.55,1.31,4.58,4.58,0,0,1,.83,2.27,39.63,39.63,0,0,1,.19,4.75v25.87a38.6,38.6,0,0,1-.17,4.44,6.15,6.15,0,0,1-.59,2.27,3.56,3.56,0,0,1-1.59,1.64,11.48,11.48,0,0,1-3.27.73v.66h16.68v-.66a8.33,8.33,0,0,1-3.92-1.35,3.31,3.31,0,0,1-1.13-1.73,12.39,12.39,0,0,1-.31-3.27v-7.72q0-12.58,9.17-12.59a7.39,7.39,0,0,1,5.46,2,5.79,5.79,0,0,1,1.41,2.4,14,14,0,0,1,.41,3.76v10.44a27.84,27.84,0,0,1-.25,4.18,5.05,5.05,0,0,1-1,2.27,3.71,3.71,0,0,1-1.52,1.13,12.72,12.72,0,0,1-2.86.57v.66h16.7v-.66a8.44,8.44,0,0,1-3.92-1.35A3.41,3.41,0,0,1,451.78,324.67Z"/><path class="cls-1" d="M520.39,315.64a12.91,12.91,0,0,0-5.38-3.52l-4-1.59a12.59,12.59,0,0,1-4.16-2.38,4.05,4.05,0,0,1-1.34-2.93A4.24,4.24,0,0,1,507,302a5.22,5.22,0,0,1,3.61-1.34,7.36,7.36,0,0,1,3.06.7,8.52,8.52,0,0,1,2.74,2,7.28,7.28,0,0,1,1.38,1.83,13.19,13.19,0,0,1,.89,2.54h.81l-.41-7.48h-.78a1.71,1.71,0,0,1-1.37,1,3.75,3.75,0,0,1-1-.2l-1.29-.48a10.57,10.57,0,0,0-3.61-.61,9.89,9.89,0,0,0-6.93,2.43,6.82,6.82,0,0,0-2.27,5.11,6.46,6.46,0,0,0,2.27,4.88,25.85,25.85,0,0,0,6.37,3.7,39.11,39.11,0,0,1,3.89,1.94,9.12,9.12,0,0,1,1.92,1.52,5.32,5.32,0,0,1,1.35,3.62,4.54,4.54,0,0,1-1.89,3.93,7,7,0,0,1-4.14,1.25,8.51,8.51,0,0,1-6.81-3.72,17.29,17.29,0,0,1-2.65-5.48h-.61v9.32H502a2.25,2.25,0,0,1,2-1,3.7,3.7,0,0,1,.88.08c.22,0,.87.27,2,.64A16,16,0,0,0,512,329a11,11,0,0,0,7.59-2.63,7.7,7.7,0,0,0,.78-10.7Z"/><path class="cls-1" d="M144.16,324.63a8.71,8.71,0,0,1-3,1.64,12.25,12.25,0,0,1-3.89.6,13.5,13.5,0,0,1-5.29-1.05,12,12,0,0,1-4.23-2.9,12.85,12.85,0,0,1-2.63-4.54,16.6,16.6,0,0,1-1-5.59c0-.49.06-1.26.16-2.34h22.28a9.38,9.38,0,0,0-2.77-6.92,11.89,11.89,0,0,0-4.36-2.72,16.48,16.48,0,0,0-5.61-.94,17.38,17.38,0,0,0-10.11,3.07c-.29.2-.58.42-.85.64a14.31,14.31,0,0,0-2,20.14,13.93,13.93,0,0,0,5.67,4,22.39,22.39,0,0,0,8,1.28,16.58,16.58,0,0,0,8.62-1.95,9.26,9.26,0,0,0,4.23-5.82l-.77-.24A8.91,8.91,0,0,1,144.16,324.63ZM127.42,303a7.82,7.82,0,0,1,5.68-2.44,7.6,7.6,0,0,1,6.36,3.5,11.23,11.23,0,0,1,1.4,5.07H124.54A10.17,10.17,0,0,1,127.42,303Z"/><path class="cls-1" d="M89.22,324.63a13.83,13.83,0,0,1-.3-3.27v-14A6.23,6.23,0,0,0,86,301.86a13.89,13.89,0,0,0-7.8-2,16.7,16.7,0,0,0-11.2,4v-.52a13.34,13.34,0,0,0-.54-3.56L56,301v.61a7.88,7.88,0,0,1,2.63.51,3.7,3.7,0,0,1,1.54,1.34,4.64,4.64,0,0,1,.83,2.27,37.82,37.82,0,0,1,.19,4.76v8.13a43.71,43.71,0,0,1-.16,4.44,6.37,6.37,0,0,1-.6,2.27A3.61,3.61,0,0,1,58.87,327a11.34,11.34,0,0,1-3.26.73v.66H72.23v-.66a8.33,8.33,0,0,1-3.91-1.35,3.31,3.31,0,0,1-1.13-1.73,13.83,13.83,0,0,1-.3-3.27v-8.9a29.17,29.17,0,0,1,.37-5.52,6.64,6.64,0,0,1,1.5-3,7.1,7.1,0,0,1,2.9-2,10.52,10.52,0,0,1,4-.72,9.45,9.45,0,0,1,3.6.65,5.42,5.42,0,0,1,2.51,1.79,5.83,5.83,0,0,1,1.13,2.7,34.48,34.48,0,0,1,.29,5.28v7a43,43,0,0,1-.17,4.4,6.17,6.17,0,0,1-.6,2.27A3.61,3.61,0,0,1,80.79,327a11.42,11.42,0,0,1-3.26.73v.66H94.26v-.66a8.44,8.44,0,0,1-3.91-1.35A3.37,3.37,0,0,1,89.22,324.63Z"/><path class="cls-1" d="M223.93,305a19.72,19.72,0,0,0-26.42,0,12.63,12.63,0,0,0-4.54,9.52h0a12.14,12.14,0,0,0,1.13,5,14.5,14.5,0,0,0,3.21,4.4,20.35,20.35,0,0,0,26.88,0,12.33,12.33,0,0,0-.23-18.94Zm-3.18,14.93a14.88,14.88,0,0,1-2.39,4.63,9.72,9.72,0,0,1-3.41,2.76,8.35,8.35,0,0,1-4,1,9.89,9.89,0,0,1-8.15-4.45,15.78,15.78,0,0,1-3-9.71h-.05a14.82,14.82,0,0,1,3.25-9.59,9.19,9.19,0,0,1,7.4-3.92,9.61,9.61,0,0,1,7.63,3.72,15.51,15.51,0,0,1,2.58,4.72,16.44,16.44,0,0,1,1,5.46A17.54,17.54,0,0,1,220.75,319.88Z"/><path class="cls-1" d="M253.06,266.12c.75.48,2.56-.15,3.93-1.14-.28,0-.58,0-.91,0C253.23,264.79,252.3,265.65,253.06,266.12Z"/><path class="cls-1" d="M278.62,261.16c.88-.86,1.09-1.63.86-2.06-.39-.71-2.15-.14-3.42,2.15a4.82,4.82,0,0,0-.39,1C276.47,262.6,277.84,262,278.62,261.16Z"/><path class="cls-1" d="M304,256.32c.72-1,.8-1.8.5-2.18-.51-.63-2.15.23-3,2.7a5.4,5.4,0,0,0-.2,1.06C302.14,258.1,303.38,257.22,304,256.32Z"/><path class="cls-1" d="M319.62,239.29a4,4,0,0,1,0-2.29,8.41,8.41,0,0,1,1.68-3,7.91,7.91,0,0,0-4.84.38,3.22,3.22,0,0,0-2.27,2.15,1.88,1.88,0,0,0,.07.86C314.76,238.56,316.77,239.3,319.62,239.29Z"/><path class="cls-1" d="M246.12,261.8c1.38-1.24,2.14-2.79,1.27-3.7s-2.87-.68-4.35.38c-2.06,1.43-2.44,3.71-1.68,4.48s2.36.31,3.51-.32a1.42,1.42,0,0,1-.3-1.55,1.11,1.11,0,0,1,1.14-.79c.62,0,1.22.41.8,1C246.37,261.51,246.2,261.66,246.12,261.8Z"/><path class="cls-1" d="M132.93,221.85a10.82,10.82,0,0,0-1.82-1.62c-1.47-1.09-7.13-2.91-8.25-.51-.85,1.75,1.19,3.65,3.73,5.16A20.57,20.57,0,0,1,132.93,221.85Z"/><path class="cls-1" d="M265.29,249.26c-1.51-.15-4.46,2.69-6.66,5.26-.8.95-1.77,2.22-2.76,3.55a33.15,33.15,0,0,0,6.74-4C265.15,252.21,267.18,249.47,265.29,249.26Z"/><path class="cls-1" d="M146.26,235c-1-.47-2.54.26-4.12,1.95-1,1.1-2.16,3.42-1.56,4.57.42.85,1.89.15,3.52-1.46.65-.67,1.22-1.31,1.68-1.84a13,13,0,0,1,1.2-1.72A1.59,1.59,0,0,0,146.26,235Z"/><path class="cls-1" d="M379.05,236.2c.58-.73,1.07-1.43,1.47-2a12.3,12.3,0,0,1,1-1.84,1.58,1.58,0,0,0-.88-1.41c-1-.36-2.5.54-3.88,2.4-.89,1.2-1.76,3.63-1,4.71C376.23,238.85,377.62,238,379.05,236.2Z"/><path class="cls-1" d="M346.5,245.77c1.1.24,2.16-1,2.81-2.14a1.39,1.39,0,0,1-1.08-1.15,1.11,1.11,0,0,1,.54-1.27c.54-.32,1.26-.3,1.22.43,0,.24-.08.46-.08.62.52-1.78.34-3.5-.89-3.8s-2.79.94-3.48,2.63C344.56,243.39,345.45,245.53,346.5,245.77Z"/><path class="cls-1" d="M181.13,243.94c1.12-.5,1.58-1.15,1.52-1.63-.13-.81-2-.88-4,.83a4.73,4.73,0,0,0-.71.81C178.61,244.54,180.12,244.41,181.13,243.94Z"/><path class="cls-1" d="M345.82,258.47c15.42-6.26,26.09-10.83,43.43-9.57,19.49,1.41,40.84,9.5,65.1,28.27,7.13-12.74-2.83-26.49-20.56-40.68A237.38,237.38,0,0,1,471.5,249.6C417.89,192.45,363.27,214,301.75,231.32c-14.82,4.18-25.5,7.58-37.87,7.89A88.68,88.68,0,0,1,243,237c-28.23-5.6-57.24-17.89-75.41-21.84-3.69-.8-7.44-1.25-11.19-1.74H175.5V106.72H181V213.45h21.12V106.72h5.51V213.45h21.13V106.72h5.51V213.45h21.13V106.72h5.68V0H154.37V213.17l-1.8-.26a106.15,106.15,0,0,0-35.9,2.45c-37.94,9.31-47.74,22.73-54.45,32.42l25.43-5.27c-14.85,15-15.48,31-9.64,47.52,12.37-23.83,15-28.39,38.33-36,16.16-5.27,30,.33,46.49,3.49l77.3,14.82c13.84,2.66,25.83,5.23,40,3.95Q308.13,273.75,345.82,258.47ZM168.33,90.89a10.75,10.75,0,0,0,5-1.47,14.88,14.88,0,0,0,4.22-4.22,27.93,27.93,0,0,0,2-3.22L180,81c.3-.59.59-1.21.88-1.85,1.09-2.45,2.55-6.11,4.34-11L205,14.56v-.1H208l23.46,59.88c1,2.54,1.86,4.68,2.63,6.41v.09c.57,1.3,1.09,2.36,1.53,3.18.21.39.42.77.64,1.12a13,13,0,0,0,5,4.62l.28.12a30.44,30.44,0,0,0,5.43,1l.1,1.27H247v.08l-35.28-.08h-.08V90.82a15.42,15.42,0,0,0,6.87-1.77,7,7,0,0,0,3.16-6,18.35,18.35,0,0,0-1.51-6.28l-.92-2.39-5.17-13.44H190.4l-2.82,7.86-1.35,3.53c-1.62,4.19-2.43,7.47-2.43,9.87a8.77,8.77,0,0,0,.9,3.93A8.14,8.14,0,0,0,187,89a12,12,0,0,0,5.38,1.84v.06h.12v1.3H168.33ZM313.49,236.06a4.8,4.8,0,0,1,2.86-2.22,11.41,11.41,0,0,1,5.74-.69,12.37,12.37,0,0,1,4.17-2.65l.62-.24c3.31-1.07,5.31-.36,5.84,1,.39,1,0,2.36-1.24,3.63a16.15,16.15,0,0,1-5.85,3.73,19.77,19.77,0,0,1-3.06.9l-.05,0c.63,1.23,2.38,1.8,5.57,1.09,1.48-.37.93.44.22.71l-.36.14c-6.29,2.42-9,6-9.95,9.7a6.66,6.66,0,0,0,.19,4.08,4.51,4.51,0,0,0,5.44,3,10.61,10.61,0,0,0,1.09-.34,11.86,11.86,0,0,0,5.68-4.43,24.72,24.72,0,0,0,2.94-7.47c-.14,0-.12-.18-.09-.39.28-1.2.42-3.11,1.94-3.41a2,2,0,0,1,2.23,1.3,6.42,6.42,0,0,1,.87-2,3.43,3.43,0,0,1,1.71-1.22c.52-.22,1.52-.3,1.68.11s-.68,1.33-1.19,1c-1.49-1-2.84,2.22-2.56,4.64.2,2,.78,2.66,1.65,2.78,1.34.21,2.35-2,3-4.25a5.26,5.26,0,0,1,.48-3.54,6.57,6.57,0,0,1,3.45-3.41,3.94,3.94,0,0,1,2.93,0c1.63.59,2.11,2.84,1.17,5.12,1-.24,1.85-1.71,2.3-2.83.19-.45.31-.8.41-1.1a61.92,61.92,0,0,1,1.61-9.34c-2.89.28-5.47.42-7.71,1.25s-2.83,1.62-2.68,2.82a1.08,1.08,0,0,1-1.59,1c-.52-.42-.5-1.17.25-2,1.28-1.39,2.6-2.1,5.9-2.85a48.28,48.28,0,0,1,6-.77c.33-1.22.62-2.43.95-3.47.26-.81.72-1.42,2.32-1.54,1.06-.09.69.84.3,1.85-.21.61-.51,1.63-.82,2.89a25.42,25.42,0,0,0,8.29-2.28c2.47-1.2,2.34-2.13,2.15-2.58s.72-1.58,1.63-1.54.86.91.56,1.55c-.64,1.35-2.93,2.5-3.76,2.87a32.17,32.17,0,0,1-9,2.49,69.84,69.84,0,0,0-2,12.29c0,2.22,1.34,1.32,2.23-.35a19.76,19.76,0,0,0,.95-2.15,29.15,29.15,0,0,1,1.19-4,2.59,2.59,0,0,1,2.4-2c1.27-.19.58,1.43.25,2.28a27,27,0,0,0-1.51,4.76c-.3,1.79,1,1.45,2,0a20.69,20.69,0,0,0,1.57-3,3.34,3.34,0,0,1,.06-.65,7.1,7.1,0,0,1,5.72-5.41,2.45,2.45,0,0,1,1.77.54,1.68,1.68,0,0,1,.5,1.92,1.57,1.57,0,0,1-1.37,1c-.68,0-1-.52-.5-1s1.22-1.4.61-1.6c-1-.33-2.4,1.25-3.28,2.64-1.12,1.72-1.49,4.8.79,5.27a3.41,3.41,0,0,0,2.84-1.52,18.9,18.9,0,0,0,1.26-1.83,4.39,4.39,0,0,1,.08-1.33,6.6,6.6,0,0,1,6.79-5,2.17,2.17,0,0,1,2.07,1.54c.49-.7.77-1.72,3-1.46,1.2.13.13,1.71-.45,2.45a9.87,9.87,0,0,0-2.07,4.13c-.31,2.18,1.12,1.44,2.34.22a22.34,22.34,0,0,0,2.35-3.06,2.47,2.47,0,0,1,.35-.61c.07-.09.13-.18.2-.26l.13-.22c.16-.27.24-.38.32-.41a10.61,10.61,0,0,1,2.75-3,7.51,7.51,0,0,1,2.42-.9l.28,0c.19,0,.43.06.47.24s-.21.41-.55.54a5,5,0,0,0-2,2.38c-.76,2,1.85,3.28,1.86,5.37,0,.08,0,.3,0,.38.15-.11.25-.22.39-.32a24.65,24.65,0,0,0,3.45-3.88.32.32,0,0,1,.39-.13c.18,0,.22.19.12.37a26.12,26.12,0,0,1-4.09,4.49c-1.43,1.13-3.19,2.36-5.73,1.8-1.41-.32-2.24-1-2.19-2.07s1.11-1.59,1.44-1.43-.51.69-.39,1.33c.1.82,1.81,1,2.77.6a1.8,1.8,0,0,0,.51-3,3.34,3.34,0,0,1-.61-3.45,11.38,11.38,0,0,0-1.28,1.59,19,19,0,0,1-3.62,4.76c-1.74,1.39-3.93,1.28-4.49-.44A3.71,3.71,0,0,1,380,236c-1,1.51-2.46,3.07-4.17,3.2a2.52,2.52,0,0,1-2.61-2.06,11,11,0,0,1-.81,1.16,5.06,5.06,0,0,1-5,2.16,3.2,3.2,0,0,1-2.59-2.37,11.28,11.28,0,0,1-1.55,2.64c-1.45,1.69-3.48,1.56-4.39,0a2.13,2.13,0,0,1-.09-.3,13,13,0,0,1-.88,1.7c-1.18,1.87-3.7,1.88-4.48.28a5.2,5.2,0,0,1-.25-1.82,5.18,5.18,0,0,1-3,2.93c-1.44,2.71-3.37,3.66-4.93,3.68a2.83,2.83,0,0,1-2.38-1.75c-.65,2-1.73,4-3.57,4a1.77,1.77,0,0,1-1.68-1.24,5.39,5.39,0,0,1-1.72,3.08c-1.07.88-2.63,1-1.76-.16,1.58-2,2.91-7.44,1.25-8.09-.85-.33-1.16.92-1.42,2l0,.12.06,0v0a20.47,20.47,0,0,1-2.78,8.1,15.17,15.17,0,0,1-7,5.71l-.45.17c-4.63,1.58-7.68-.12-8.77-3a7.8,7.8,0,0,1-.26-4.37c.85-4,5.33-8,9.72-9.65a14.73,14.73,0,0,1,1.68-.53c-2,.49-5.21.21-6.34-1.79-3.77.25-5.86-.94-6.39-2.33A2.06,2.06,0,0,1,313.49,236.06Zm33.45-3.7c.65-.71,1.87-.13,1.42.43-.67.8-3.26,4.49-4.22,4.09C343.67,236.69,346.29,233.07,346.94,232.36Zm16.61-1.9-.19.23a1.8,1.8,0,0,1-1.68.71l-.22-.1a1.12,1.12,0,0,1-.31-1.5s.09-.21.13-.26a1.86,1.86,0,0,1,1.75-.64l.22.1A1.07,1.07,0,0,1,363.55,230.46Zm-61.81,23.23c1.29-.69,3-.71,3.47-.08s.25,2-.78,3.14c-1.37,1.48-2.58,1.77-3.23,1.71-.2,1.83.2,3.88,1.64,3.73,2.24-.25,3.73-4.24,4.27-5.54s.62-1.9.91-1.9.42.08-.35,2-2.12,6.59-6.39,6.26c-1.86-.16-2.84-1.59-2.77-3.93A6.24,6.24,0,0,1,301.74,253.69Zm-107.25-6.2a26.35,26.35,0,0,1-5,3.46c-1.64.78-3.64,1.59-6,.48-1.3-.63-1.95-1.5-1.68-2.51.24-.86,1.45-1.3,1.73-1.07s-.65.56-.68,1.21c-.08.82,1.55,1.35,2.57,1.2a1.78,1.78,0,0,0,1.17-2.8,3.35,3.35,0,0,1,.17-3.51,9.8,9.8,0,0,0-1.46,1.14c-.21.21-.59.52-1.25,1-1.51,1.21-5.13,4.64-8.66,2.22a2.8,2.8,0,0,1-1.1-3.35,8.29,8.29,0,0,1-3.69,2.05c-2,.33-3.76-.82-3.33-2.63s4-3.88,4.3-4.95c.56-1.75-4.92,1-6.67,2.82l-.31.27c-.38.37-.69.68-1.09,1.12-.73.82-1.58,1.92-2.74,1.46-.84-.36-1.3-.89,0-2.33.85-.91,1.76-1.88,2.63-2.87.47-.54,1.67-1.48,1-1.68-.42-.1-1.3.54-1.61.81a3.17,3.17,0,0,1-.55.41c-1.44,1.5-5.12,5.43-7,4.69-1.41-.56-2.07-1.53-1.76-2.65a7.14,7.14,0,0,1,1.77-2.4c1.32-1.42,2-2.45.23-3.43a18.74,18.74,0,0,1-1.49,1.88h0a2.69,2.69,0,0,1-.29.42,19.94,19.94,0,0,1-4.22,4.44c-1.88,1.19-4.05.84-4.42-.94a3.72,3.72,0,0,1,0-1.45c-1.18,1.38-2.79,2.77-4.5,2.71a2.56,2.56,0,0,1-2.39-2.52,13.49,13.49,0,0,1-9.57,4.6c-8.43.12-11.38-6.19-7.7-13.79a17.41,17.41,0,0,1,5-5.64c-3.82-2.32-5.42-5.46-3-7.05,2.12-1.38,7.22.26,9.39,1.49a15,15,0,0,1,2.29,1.57,17.36,17.36,0,0,1,3.06-.32c7-.24,8.23,2.74,7.19,4.47-1.87,3-8.46,3.45-14.22,1.84-.66-.18-1.27-.36-1.87-.58a20.37,20.37,0,0,0-4.06,4.9c-2.5,4.09-3.84,12.48,3.87,12.47,4.06,0,7.07-2,9.59-4.77a4.41,4.41,0,0,1,.23-1.21,6.59,6.59,0,0,1,7.3-4.18c1,.17,1.89,1,1.89,1.75.56-.63,1-1.62,3.16-1.11,1.18.26-.05,1.71-.71,2.38a9.75,9.75,0,0,0-2.52,3.88c-.56,2.13.95,1.55,2.3.48a26.63,26.63,0,0,0,3.47-3.79l0,0c0-.11.16-.24.25-.36a12.07,12.07,0,0,0,1.49-1.88c-1.12-.89.3-3.5,2-2.52.7.41.29,1.22-.11,1.64-.58.63-.71,1.21.21,1.73,1.55.88,2.29,2,.94,3.58-1.58,1.86-3.09,3.59-2.27,3.83,1,.31,5.11-3.51,6-4.47.28-.32.52-.57.72-.59l.07-.07a3.06,3.06,0,0,1,2.42-.95c2,.25,2.37,1.32,1.74,2.55,2.76-1.56,4.9-2.13,6-1.6,2.1,1,2.07,2.4.15,3.71s-3.55,3.22-2.89,3.95,2.85-.7,4.88-2.42l.08-.15a6.23,6.23,0,0,1,5.49-3c1.46,0,2.92.86,3,1.66s-.79,1.87-2.24,2.33c-1.94.6-3.12.25-3.66-.13-1.08,1.48-1.76,3.46-.44,4.05,2.07.9,5.35-1.81,6.46-2.67l.63-.5.2-.18c1.26-1,2.2-2.26,4.19-3.06a7.62,7.62,0,0,1,2.56-.34c.09,0,.19,0,.28,0s.4.15.4.35-.29.34-.65.4a4.91,4.91,0,0,0-2.44,1.88c-1.19,1.83,1.08,3.61.62,5.65,0,.07,0,.3-.06.37.17-.07.29-.15.46-.22a24.44,24.44,0,0,0,4.22-3,.33.33,0,0,1,.41,0C194.62,247.18,194.63,247.34,194.49,247.49Zm29.66,17.4c-.38-.05-.6-.17-.45-.4,4.06-6.21,3.59-7.84,6-14.3.84-2.34,2.55-5.74,5.4-7.45-4.51,1.08-6.76,2.5-12.66,9.77-3.9,4.79-8.9,10.84-17.11,9.49-3.14-.53-5.87-2.3-6.31-5a5.46,5.46,0,0,1,.63-3.79c1.26-2.24,3.23-2.16,3.66-1.64.76,1-.21,1.4-1.71,2.26a2.94,2.94,0,0,0-1.43,3.46c.39,2,2.55,3.52,5.38,3.91,6.28.86,10.87-3.33,15.38-8.91,5.24-6.46,8.78-8.89,12-9.85-3-.38-6.44-1.24-9.88-1.94-7.12-1.46-12.28-.06-13.26,4-.81,3.3,4.21,4.57,7.46,3.25,2.71-1.09,3.41-3,4.18-5,.42-1.06,1,1.51.64,2.65-.5,1.64-1.93,2.63-3.91,3.23-2.59.78-10.47.14-9.49-4.41,1-4.73,6.93-6,14.6-4.39A104,104,0,0,0,234.73,242c1-.14,4.6-.83,4.92.15s-3,.77-3.12.74c-1.78,1.48-2.78,4.31-4.14,9-1.93,6.71-5.61,10.91-7.43,12.15,5.5-1.4,8.91-5.05,14.11-10.21,4-3.91,9.34-10.86,17.54-9.44l.37.08c3.94.85,4,3.51,2.54,3.3-2.69-.36-.32-1.9-3.14-2.55-5-1.11-9.14,2-15.75,8.79C237.08,257.66,231,264.61,224.15,264.89Zm41.14-2.26a6.48,6.48,0,0,1-4.7,2.29,8.6,8.6,0,0,1-1,.77,7.84,7.84,0,0,1-5.88,1.42c-1.51-.2-1.89-1-1.67-1.53.36-1,1.68-1.17,4.12-1.12.52,0,1,0,1.43,0,1.83-1.6,2.52-3.92,1.69-4.59s-3.22.15-4.5.77a7.22,7.22,0,0,0-1.59,1.15c-.7,1-1.19,1.84-1.56,2.43-1.26,2-1.4,2.37-3,2.13-.47-.06-1.08-.52-.29-1.88.4-.66.9-1.45,1.47-2.32a5.2,5.2,0,0,1-4.14.89c-2.66,1.53-4.8,1.31-6.13.49-1.67-1-1.66-4.54,1.41-6.44a6.57,6.57,0,0,1,4.74-1.05,3.92,3.92,0,0,1,2.49,1.55c1.07,1.37.27,3.53-1.73,5,.95.31,2.47-.47,3.45-1.18.39-.28.67-.51.91-.71a65.82,65.82,0,0,1,7.18-8.93c2.73-2.65,5.33-3.85,7.41-3.25,3.6,1-.88,5-2.78,6.33a32.29,32.29,0,0,1-7.38,4.12c-.24.38-.58.75-.82,1.13,1.44-.75,3.48-1.69,5.74-1,2.44.73,2.83,2.92,1.16,5-.06.11-.16.17-.22.27a5.92,5.92,0,0,0,3.44-1.77c.55-.57.61-.71.93-.59C265.56,262,265.74,262.13,265.29,262.63Zm9.51,4.65a2.8,2.8,0,0,1-2.18-2.66c-1.33,1.78-3,3.6-4.29,3.34-1.48-.3-2.31-1.13-2.2-2.29a7.3,7.3,0,0,1,1.3-2.68c1.05-1.63,1.55-2.77-.37-3.42a21.16,21.16,0,0,1-1.13,2.12c-.23.34-.37.38-.61.27s0-.33.08-.52a11.48,11.48,0,0,0,1.13-2.12c-1.25-.67-.33-3.49,1.54-2.84.77.28.51,1.15.19,1.64-.46.72-.49,1.32.51,1.66,1.68.59,2.61,1.57,1.57,3.35-1.23,2.12-2.41,4.09-1.55,4.18s2.57-2.06,3.85-3.75c0-.2.05-.4.09-.62a6.22,6.22,0,0,1,4.1-4.75c1.38-.47,3-.21,3.43.5s-.1,2-1.3,3c-1.61,1.23-2.84,1.31-3.48,1.14-.5,1.77-.45,3.86,1,3.95,2.25.13,4.39-3.55,5.14-4.74q.27-.43.45-.75c0-.08.07-.16.09-.22.74-1.43,1.08-3,2.58-4.5a7.82,7.82,0,0,1,2.19-1.36,2.76,2.76,0,0,0,.27-.08c.19,0,.43,0,.51.15s-.13.43-.43.63a4.91,4.91,0,0,0-1.46,2.71c-.34,2.17,2.46,2.87,2.88,4.91,0,.08.09.29.1.36.12-.13.2-.25.32-.38a24.37,24.37,0,0,0,2.63-4.48.33.33,0,0,1,.35-.21c.19,0,.26.15.2.35a26.26,26.26,0,0,1-3.14,5.2c-1.18,1.39-2.67,2.93-5.27,2.88-1.45,0-2.4-.57-2.56-1.6s.79-1.78,1.14-1.68-.36.77-.13,1.37c.27.79,2,.6,2.85.05a1.8,1.8,0,0,0-.09-3,3.31,3.31,0,0,1-1.27-3.27,7.23,7.23,0,0,0-.75,1.4c0,.19-.23.62-.92,1.74C281.16,263.85,279,268.32,274.8,267.28Z"/><path class="cls-1" d="M322.7,239a15,15,0,0,0,2.85-.82,14.41,14.41,0,0,0,5.4-3.55,3.16,3.16,0,0,0,1-3c-.36-.94-1.59-1.35-3.85-.48a10.41,10.41,0,0,0-3.82,2.63,2.94,2.94,0,0,1,1.66,1.4,1.08,1.08,0,0,1,0,.85c-.16.26-.25.42-.43.49-.53.2-1.23-.57-2.2-1.35a5.15,5.15,0,0,0-.95,3.87C322.41,239,322.62,239,322.7,239Z"/><path class="cls-1" d="M131.33,227c4,1.14,10.82,1.27,12.59-1.55,1.39-2.2-1.52-3.77-5.94-3a16.47,16.47,0,0,0-2,.45c1.11,1.52.72,2.62-.47,2.63-.9,0-1-.8-1.51-2a18.38,18.38,0,0,0-4.61,2.78C130.07,226.55,130.72,226.77,131.33,227Z"/></g></g></svg>